<?xml version="1.0" encoding="UTF-8" standalone="no"?><!DOCTYPE svg PUBLIC "-//W3C//DTD SVG 1.1//EN" "http://www.w3.org/Graphics/SVG/1.1/DTD/svg11.dtd"><svg width="100%" height="100%" viewBox="0 0 6702 1971" version="1.1" xmlns="http://www.w3.org/2000/svg" xmlns:xlink="http://www.w3.org/1999/xlink" xml:space="preserve" xmlns:serif="http://www.serif.com/" style="fill-rule:evenodd;clip-rule:evenodd;stroke-linejoin:round;stroke-miterlimit:2;"><rect id="Logo-White" serif:id="Logo White" x="0" y="0" width="6702" height="1971" style="fill:none;"/><g><path d="M927.246,819.995c7.679,13.779 21.452,23.084 37.101,25.065c15.648,1.981 31.306,-3.598 42.177,-15.027c199.368,-209.259 374.177,-413.512 422.9,-682.396c72.086,309.637 2.836,646.231 -209.645,905.8c-7.5,9.118 -11.501,20.613 -11.283,32.418c0.503,27.947 1.421,77.79 1.421,77.79c0,-0 -49.843,0.919 -77.789,1.434c-11.808,0.218 -23.15,4.641 -31.988,12.474c-251.555,221.911 -585.369,303.518 -897.451,242.891c266.906,-58.599 464.578,-240.816 666.344,-447.764c11.02,-11.283 16.018,-27.135 13.462,-42.698c-2.557,-15.564 -12.362,-28.984 -26.413,-36.149c-48.444,-24.709 -113.302,-57.784 -142.673,-72.762c-3.667,-1.869 -6.23,-5.366 -6.911,-9.425c-0.681,-4.059 0.602,-8.201 3.459,-11.165c26.992,-28.006 91.627,-95.068 118.619,-123.074c2.857,-2.964 6.948,-4.398 11.03,-3.868c4.081,0.531 7.67,2.964 9.674,6.559c16.05,28.799 51.492,92.395 77.966,139.897Z" style="fill:#009fb4;"/><g><g><path d="M2011.52,1433.32c-66.806,0 -126.674,-12.076 -179.605,-36.229c-52.93,-24.153 -94.812,-57.042 -125.645,-98.667c-30.834,-41.625 -47.278,-88.131 -49.334,-139.52l181.917,-0c3.083,35.972 20.299,66.034 51.646,90.187c31.347,24.153 70.66,36.229 117.937,36.229c49.334,0 87.618,-9.507 114.854,-28.521c27.237,-19.013 40.855,-43.423 40.855,-73.229c-0,-31.861 -15.16,-55.5 -45.48,-70.916c-30.319,-15.417 -78.368,-32.375 -144.145,-50.875c-63.723,-17.473 -115.625,-34.431 -155.709,-50.875c-40.083,-16.445 -74.771,-41.625 -104.062,-75.542c-29.292,-33.917 -43.938,-78.625 -43.938,-134.125c0,-45.222 13.361,-86.59 40.084,-124.104c26.722,-37.514 65.007,-67.063 114.854,-88.646c49.847,-21.583 107.146,-32.375 171.896,-32.375c96.611,-0 174.465,24.41 233.562,73.229c59.097,48.82 90.702,115.368 94.813,199.646l-175.75,-0c-3.084,-38.028 -18.5,-68.347 -46.25,-90.958c-27.75,-22.611 -65.264,-33.917 -112.542,-33.917c-46.25,-0 -81.708,8.736 -106.375,26.208c-24.667,17.473 -37,40.598 -37,69.375c-0,22.611 8.222,41.625 24.667,57.042c16.444,15.417 36.486,27.493 60.125,36.229c23.639,8.736 58.583,19.785 104.833,33.146c61.667,16.444 112.285,33.146 151.854,50.104c39.57,16.958 73.743,41.882 102.521,74.771c28.778,32.889 43.681,76.569 44.708,131.042c0,48.305 -13.361,91.472 -40.083,129.5c-26.722,38.027 -64.493,67.833 -113.313,89.416c-48.819,21.584 -106.118,32.375 -171.895,32.375Z" style="fill:#fff;fill-rule:nonzero;"/><path d="M3636.44,569.988l-263.625,849.458l-185,0l-171.125,-627.458l-171.125,627.458l-185,0l-265.166,-849.458l178.833,-0l177.292,682.958l180.375,-682.958l183.458,-0l172.667,679.875l175.75,-679.875l172.666,-0Z" style="fill:#fff;fill-rule:nonzero;"/><path d="M4505.94,569.988l0,849.458l-175.75,0l0,-100.208c-27.75,34.944 -63.979,62.437 -108.687,82.479c-44.709,20.042 -92.243,30.063 -142.604,30.063c-66.806,-0 -126.674,-13.875 -179.605,-41.625c-52.93,-27.75 -94.555,-68.861 -124.875,-123.334c-30.319,-54.472 -45.479,-120.25 -45.479,-197.333l0,-499.5l174.209,-0l-0,473.292c-0,76.055 19.014,134.382 57.041,174.979c38.028,40.597 89.931,60.896 155.709,60.896c65.777,-0 117.937,-20.299 156.479,-60.896c38.541,-40.597 57.812,-98.924 57.812,-174.979l0,-473.292l175.75,-0Z" style="fill:#fff;fill-rule:nonzero;"/><path d="M4882.1,694.863c29.806,-39.056 70.403,-71.944 121.792,-98.667c51.389,-26.722 109.458,-40.083 174.208,-40.083c74,-0 141.576,18.243 202.729,54.729c61.153,36.486 109.202,87.618 144.146,153.396c34.944,65.778 52.417,141.319 52.417,226.625c-0,85.306 -17.473,161.618 -52.417,228.937c-34.944,67.32 -82.993,119.737 -144.146,157.25c-61.153,37.514 -128.729,56.271 -202.729,56.271c-64.75,0 -122.306,-13.104 -172.667,-39.312c-50.361,-26.209 -91.472,-58.84 -123.333,-97.896l-0,527.25l-175.75,-0l-0,-1253.38l175.75,-0l-0,124.875Zm516.458,296c0,-58.583 -12.076,-109.201 -36.229,-151.854c-24.153,-42.653 -56.014,-75.028 -95.583,-97.125c-39.57,-22.097 -81.965,-33.146 -127.188,-33.146c-44.194,-0 -86.076,11.306 -125.646,33.917c-39.569,22.611 -71.43,55.5 -95.583,98.666c-24.153,43.167 -36.229,94.042 -36.229,152.625c-0,58.584 12.076,109.716 36.229,153.396c24.153,43.681 56.014,76.827 95.583,99.438c39.57,22.611 81.452,33.916 125.646,33.916c45.223,0 87.618,-11.562 127.188,-34.687c39.569,-23.125 71.43,-56.785 95.583,-100.979c24.153,-44.195 36.229,-95.584 36.229,-154.167Z" style="fill:#fff;fill-rule:nonzero;"/><path d="M6499.31,973.905c0,31.861 -2.055,60.639 -6.166,86.333l-649.042,-0c5.139,67.833 30.319,122.306 75.542,163.417c45.222,41.111 100.722,61.666 166.5,61.666c94.555,0 161.361,-39.569 200.416,-118.708l189.625,-0c-25.694,78.111 -72.201,142.09 -139.521,191.937c-67.319,49.848 -150.826,74.771 -250.52,74.771c-81.195,0 -153.91,-18.243 -218.146,-54.729c-64.236,-36.486 -114.597,-87.875 -151.084,-154.167c-36.486,-66.291 -54.729,-143.118 -54.729,-230.479c0,-87.361 17.729,-164.187 53.188,-230.479c35.458,-66.292 85.305,-117.423 149.541,-153.396c64.237,-35.972 137.98,-53.958 221.23,-53.958c80.166,-0 151.597,17.472 214.291,52.417c62.695,34.944 111.514,84.02 146.459,147.229c34.944,63.208 52.416,135.923 52.416,218.146Zm-183.458,-55.5c-1.028,-64.75 -24.153,-116.653 -69.375,-155.709c-45.222,-39.055 -101.236,-58.583 -168.042,-58.583c-60.639,-0 -112.541,19.271 -155.708,57.812c-43.167,38.542 -68.861,90.702 -77.083,156.48l470.208,-0Z" style="fill:#fff;fill-rule:nonzero;"/></g></g></g></svg>